HIERARCHY
ROOT root
{
	OFFSET	0	13.1	24.9
	CHANNELS 6  Xposition Yposition Zposition Xrotation Yrotation Zrotation
	JOINT spine_1
	{
		OFFSET	0	9.99999	0
		CHANNELS 3  Xrotation Yrotation Zrotation
		JOINT spine_2
		{
			OFFSET	0	112	-10
			CHANNELS 3  Xrotation Yrotation Zrotation
			JOINT spine_3
			{
				OFFSET	0	206.5	19.3
				CHANNELS 3  Xrotation Yrotation Zrotation
				JOINT spine_4
				{
					OFFSET	0	110.4	14.6
					CHANNELS 3  Xrotation Yrotation Zrotation
					JOINT neck_1
					{
						OFFSET	0	71.8	-50.3
						CHANNELS 3  Xrotation Yrotation Zrotation
						JOINT neck_2
						{
							OFFSET	0	86.2	-25.8
							CHANNELS 3  Xrotation Yrotation Zrotation
							JOINT head_ee
							{
								OFFSET	0	179.8	-8.7
								CHANNELS 3  Xrotation Yrotation Zrotation
								End Site
								{
									OFFSET	1	0	0
								}
							}
						}
					}
					JOINT left_clavicle
					{
						OFFSET	-43.2	22.4	-70.8
						CHANNELS 3  Xrotation Yrotation Zrotation
						JOINT left_shoulder
						{
							OFFSET	-93.9	-5.79999	48.7
							CHANNELS 3  Xrotation Yrotation Zrotation
							JOINT left_elbow
							{
								OFFSET	-291.4	-30.8	15.2
								CHANNELS 3  Xrotation Yrotation Zrotation
								JOINT left_lowarm_twist
								{
									OFFSET	-110.7	-3.89999	13.6
									CHANNELS 3  Xrotation Yrotation Zrotation
									JOINT left_hand
									{
										OFFSET	-110.7	-3.89999	13.6
										CHANNELS 3  Xrotation Yrotation Zrotation
										JOINT left_ee
										{
											OFFSET	-80.8	-5.10001	12.1
											CHANNELS 3  Xrotation Yrotation Zrotation
											End Site
											{
												OFFSET	1	0	0
											}
										}
									}
								}
							}
						}
					}
					JOINT right_clavicle
					{
						OFFSET	43.2	22.4	-70.8
						CHANNELS 3  Xrotation Yrotation Zrotation
						JOINT right_shoulder
						{
							OFFSET	93.9	-5.79999	48.7
							CHANNELS 3  Xrotation Yrotation Zrotation
							JOINT right_elbow
							{
								OFFSET	291.4	-30.8	15.2
								CHANNELS 3  Xrotation Yrotation Zrotation
								JOINT right_lowarm_twist
								{
									OFFSET	110.7	-3.89999	13.6
									CHANNELS 3  Xrotation Yrotation Zrotation
									JOINT right_hand
									{
										OFFSET	110.7	-3.89999	13.6
										CHANNELS 3  Xrotation Yrotation Zrotation
										JOINT right_ee
										{
											OFFSET	80.8	-5.10001	12.1
											CHANNELS 3  Xrotation Yrotation Zrotation
											End Site
											{
												OFFSET	1	0	0
											}
										}
									}
								}
							}
						}
					}
				}
			}
		}
	}
	JOINT left_hip
	{
		OFFSET	-82.8	-127.5	0.300001
		CHANNELS 3  Xrotation Yrotation Zrotation
		JOINT left_knee
		{
			OFFSET	-28.2	-396.7	2.2
			CHANNELS 3  Xrotation Yrotation Zrotation
			JOINT left_ankle
			{
				OFFSET	-11.7	-411.3	35.4
				CHANNELS 3  Xrotation Yrotation Zrotation
				JOINT left_toes
				{
					OFFSET	0	-60	-88.6
					CHANNELS 3  Xrotation Yrotation Zrotation
					JOINT left_foot_ee
					{
						OFFSET	-22.5	-16.5	-42.2
						CHANNELS 3  Xrotation Yrotation Zrotation
						End Site
						{
							OFFSET	1	0	0
						}
					}
				}
			}
		}
	}
	JOINT right_hip
	{
		OFFSET	82.8	-127.5	0.300001
		CHANNELS 3  Xrotation Yrotation Zrotation
		JOINT right_knee
		{
			OFFSET	28.2	-396.7	2.2
			CHANNELS 3  Xrotation Yrotation Zrotation
			JOINT right_ankle
			{
				OFFSET	11.7	-411.3	35.4
				CHANNELS 3  Xrotation Yrotation Zrotation
				JOINT right_toes
				{
					OFFSET	0	-60	-88.6
					CHANNELS 3  Xrotation Yrotation Zrotation
					JOINT right_foot_ee
					{
						OFFSET	22.5	-16.5	-42.2
						CHANNELS 3  Xrotation Yrotation Zrotation
						End Site
						{
							OFFSET	1	0	0
						}
					}
				}
			}
		}
	}
}
MOTION
Frames: 15
Frame Time: 0.02
3485.08 743.109 -1483.15 3.88432 62.7614 -4.39039 2.3933 0.510498 0.0859213 2.39316 0.503996 0.118232 2.39424 0.476737 0.201775 2.39454 0.502621 0.123949 -14.3648 14.5469 -1.80218 -15.094 28.8577 3.2342 -0.0 0.0 -0.0 -0.599952 7.39574 -0.191491 -21.4607 -28.0792 71.2026 0.68668 -18.7864 0.113597 26.7183 0.15607 -3.3787 4.59953 -28.1513 17.6202 -0.0 0.0 -0.0 9.95499 28.2185 -18.5129 -24.6504 21.8911 -66.6324 0.774775 20.9968 -0.143576 6.65781 -0.18655 0.829514 0.0203408 -29.1839 -11.5192 0.0 0.0 0.0 12.792 23.2487 -8.45719 -35.756 -0.219075 5.39505 8.84096 8.88848 -1.26178 40.2018 -0.0 -0.0 -0.0 0.0 -0.0 -1.24909 33.9192 -6.05812 -17.1393 -0.318725 -2.60109 22.82 -5.97705 3.07446 21.2081 -0.0 -0.0 0.0 0.0 0.0 
3481.71 741.133 -1484.62 4.95647 62.4588 -5.3741 2.14569 0.50941 0.159655 2.14557 0.498219 0.191748 2.14727 0.457428 0.275225 2.14751 0.495154 0.199528 -14.5567 14.659 -2.33148 -15.3317 29.3918 2.83901 -0.0 0.0 -0.0 -0.832782 7.13366 -0.642647 -22.3812 -28.7482 71.3148 0.696633 -19.0392 0.116822 27.0839 0.14724 -3.42457 4.3749 -28.2703 16.0732 -0.0 0.0 -0.0 10.12 28.2825 -18.8733 -23.5371 21.3908 -66.0211 0.79586 21.5165 -0.15122 6.71746 -0.187783 0.837033 -0.0232866 -28.1148 -10.9065 0.0 0.0 0.0 13.8869 23.5991 -9.56648 -36.3607 -0.251616 5.48207 7.11632 6.40164 -1.02162 39.3637 -0.0 -0.0 -0.0 0.0 -0.0 -0.267062 33.1335 -6.80702 -19.443 -0.30185 -2.95413 24.1124 -6.07773 3.2274 23.6956 -0.0 -0.0 0.0 0.0 0.0 
3481.13 737.251 -1487.82 5.32957 61.926 -5.34745 1.90218 0.675991 0.20281 1.90196 0.661716 0.245415 1.90484 0.607636 0.358995 1.90526 0.656706 0.258522 -14.6906 15.5558 -0.891259 -15.5487 30.2597 4.57136 -0.0 0.0 -0.0 -0.868528 5.73503 -0.898071 -23.2135 -28.3723 71.4382 0.698453 -19.0853 0.117417 28.1815 0.118969 -3.56193 4.4468 -27.6392 16.9226 -0.0 0.0 -0.0 11.0446 28.8202 -20.8779 -21.4935 21.3086 -65.3246 0.608563 16.7763 -0.0897371 8.4632 -0.22041 1.05764 1.27577 -28.6429 -18.3958 0.0 0.0 0.0 15.0076 16.6702 -9.93967 -35.3002 -0.19515 5.32923 -1.55317 8.47192 0.228106 40.2765 -0.0 -0.0 -0.0 0.0 -0.0 0.845322 36.5491 -7.92305 -21.3399 -0.277309 -3.24413 24.2287 -5.08102 3.24215 24.8304 -0.0 -0.0 0.0 0.0 0.0 
3479.48 739.9 -1488.62 5.70205 62.7334 -5.48947 1.7344 0.649493 0.0729078 1.73417 0.643537 0.114091 1.73548 0.612385 0.228348 1.73598 0.640762 0.128764 -14.8877 16.0906 -1.31372 -15.8545 31.5392 4.45866 -0.0 0.0 -0.0 -1.08722 4.88355 -1.41661 -23.4351 -28.9233 72.6634 0.710222 -19.3831 0.121294 28.7988 0.101917 -3.63893 4.32815 -27.1508 16.4297 -0.0 0.0 -0.0 11.7981 29.0578 -22.5461 -19.3247 21.1795 -64.3992 0.482932 13.4542 -0.0569635 9.85691 -0.241622 1.2344 1.91863 -27.2833 -21.8374 0.0 0.0 0.0 16.492 15.7649 -10.7629 -35.1577 -0.187783 5.30862 -4.54932 9.3701 0.67233 40.2082 -0.0 -0.0 -0.0 0.0 -0.0 0.467183 33.785 -7.81442 -21.1244 -0.28058 -3.21123 23.8601 -5.93201 3.19785 26.7868 -0.0 -0.0 0.0 0.0 0.0 
3473.5 737.772 -1492.04 4.96222 61.4621 -4.52188 1.44517 0.794128 0.267692 1.44487 0.775484 0.317685 1.44923 0.703171 0.45591 1.44976 0.766348 0.339132 -14.0576 16.794 -1.61722 -15.0143 33.0218 4.18635 -0.0 0.0 -0.0 -1.59445 4.09065 -2.4708 -23.531 -27.7751 74.846 0.664346 -18.2163 0.106509 30.5748 0.0482311 -3.85943 4.16494 -27.8913 14.9239 -0.0 0.0 -0.0 12.0686 28.5281 -23.2291 -18.1852 21.1081 -63.3053 0.510153 14.1827 -0.0634651 11.1034 -0.256946 1.39288 2.33165 -27.4075 -24.3824 0.0 0.0 0.0 18.7479 11.1057 -10.8114 -33.1322 -0.0885919 5.01372 -10.9229 8.0474 1.63048 39.9469 -0.0 -0.0 -0.0 0.0 -0.0 0.862758 33.9851 -8.51593 -21.5951 -0.273274 -3.28309 25.4409 -5.26777 3.38257 28.9935 -0.0 -0.0 0.0 0.0 0.0 
3466.55 736.438 -1498.39 3.64204 61.3661 -3.06832 1.54913 0.733741 0.261597 1.54888 0.715608 0.307759 1.55278 0.646955 0.433893 1.55322 0.70736 0.32627 -11.5139 17.4678 -0.296707 -12.1372 33.2935 4.8017 -0.0 0.0 -0.0 -2.19678 2.82066 -3.79941 -24.8489 -27.2035 76.5549 0.704714 -19.2438 0.119472 31.4917 0.0178466 -3.97259 4.32284 -27.502 16.1874 -0.0 0.0 -0.0 12.3109 28.5237 -23.781 -17.7895 21.4366 -63.02 0.603518 16.645 -0.0882865 12.3945 -0.269179 1.55734 2.97066 -28.4178 -28.5809 0.0 0.0 0.0 20.9882 8.0352 -11.5834 -32.8455 -0.0754001 4.97171 -15.6105 7.71142 2.34147 40.2176 -0.0 -0.0 -0.0 0.0 -0.0 1.26023 37.5889 -9.48864 -21.4369 -0.275796 -3.25894 24.5626 -5.17527 3.28101 29.7621 -0.0 -0.0 0.0 0.0 0.0 
3457.31 735.594 -1497.1 3.08297 60.4728 -2.80845 1.55573 0.844948 0.268692 1.55539 0.826138 0.321916 1.5601 0.753073 0.467997 1.56073 0.817532 0.343185 -11.5256 17.8735 0.329257 -12.1682 33.6661 5.53199 -0.0 0.0 -0.0 -2.54465 1.96612 -4.60188 -25.3775 -26.5974 78.1155 0.683902 -18.7157 0.112703 32.4142 -0.01455 -4.08595 4.34672 -27.2848 16.4732 -0.0 0.0 -0.0 12.3814 28.0876 -23.9986 -16.9074 22.1233 -62.3806 0.771058 20.9048 -0.142246 13.8138 -0.278347 1.73838 3.53312 -28.8487 -32.3133 0.0 0.0 0.0 22.6776 5.70687 -12.6243 -32.3211 -0.0518147 4.89471 -19.4023 5.517 2.92073 40.24 -0.0 -0.0 -0.0 0.0 -0.0 0.775197 37.9772 -8.72781 -21.4532 -0.275539 -3.26142 25.8622 -5.95163 3.43018 30.9734 -0.0 -0.0 0.0 0.0 0.0 
3452.15 732.42 -1496.11 1.10055 60.7054 -0.895844 1.78027 0.841856 0.328109 1.77996 0.819272 0.381016 1.7855 0.737544 0.521932 1.78604 0.810716 0.398897 -10.4196 18.144 0.318257 -10.9188 34.0528 5.22795 -0.0 0.0 -0.0 -2.36882 1.48849 -4.34411 -26.1521 -26.0964 79.0743 0.644851 -17.7157 0.100496 33.2619 -0.0459317 -4.18966 4.33964 -27.1736 16.4921 -0.0 0.0 -0.0 12.2858 27.8883 -23.8061 -15.8707 22.7515 -61.6877 0.944716 25.0785 -0.210122 15.0555 -0.282688 1.89691 3.90593 -29.3632 -34.8982 0.0 0.0 0.0 24.0251 4.42351 -12.3962 -31.8726 -0.0322014 4.82867 -21.0079 4.51291 3.16752 40.3738 -0.0 -0.0 -0.0 0.0 -0.0 0.749255 39.2896 -8.7989 -19.8803 -0.297044 -3.02105 24.9703 -6.21501 3.32736 31.6116 -0.0 -0.0 0.0 0.0 0.0 
3437.86 729.002 -1491.7 0.562755 59.0472 -0.106768 1.82588 0.726415 0.333981 1.82567 0.703691 0.379529 1.83041 0.624495 0.499232 1.83073 0.695501 0.394337 -8.78251 18.717 -0.874451 -9.07116 35.7203 3.66613 -0.0 0.0 -0.0 -2.06414 2.38582 -3.61777 -27.9279 -25.481 79.8796 0.605998 -16.7096 0.0889981 33.6754 -0.0617937 -4.24007 4.06066 -24.7882 16.014 -0.0 0.0 -0.0 12.0864 27.5976 -23.3884 -15.9045 23.1854 -61.2729 1.06855 27.8927 -0.265363 15.8427 -0.28366 1.99745 4.23165 -28.9303 -37.1547 0.0 0.0 0.0 25.6219 2.8316 -13.1471 -30.8522 0.0104823 4.67791 -23.0394 4.99823 3.47258 40.2938 -0.0 -0.0 -0.0 0.0 -0.0 -0.0343099 40.9944 -8.02139 -20.4777 -0.289654 -3.11241 23.8405 -4.80038 3.19707 32.3708 -0.0 -0.0 0.0 0.0 0.0 
3425.18 723.393 -1491.57 -1.77766 58.6902 1.88163 2.08568 0.505466 0.157016 2.08556 0.49445 0.188862 2.08722 0.453932 0.272206 2.08746 0.491225 0.197099 -9.55907 19.3685 1.24591 -9.97753 35.6346 6.17646 -0.0 0.0 -0.0 -2.52999 3.21911 -4.36307 -28.5326 -25.5485 81.7413 0.549526 -15.2282 0.0734607 34.0306 -0.075709 -4.28329 4.08724 -25.251 15.9296 -0.0 0.0 -0.0 12.0458 27.5202 -23.3055 -15.3508 23.2759 -60.9636 1.26819 32.1366 -0.365297 16.4437 -0.283472 2.07422 4.41096 -29.8761 -38.5121 0.0 0.0 0.0 26.2557 2.18533 -13.0715 -27.1723 0.141943 4.12856 -20.6024 5.69755 3.10206 40.2622 -0.0 -0.0 -0.0 0.0 -0.0 -0.451145 41.8601 -7.32787 -19.1165 -0.305104 -2.90413 24.0329 -4.44885 3.22043 32.6675 -0.0 -0.0 0.0 0.0 0.0 
3415.65 721.405 -1491.58 -2.66193 58.7383 3.64016 2.41128 0.391992 -0.110873 2.41119 0.398252 -0.0857041 2.4106 0.407006 -0.0172191 2.41083 0.399178 -0.081283 -10.0183 19.377 0.558905 -10.5306 36.1759 5.6918 -0.0 0.0 -0.0 -2.12675 4.44548 -3.40476 -29.7657 -25.3036 81.2048 0.461312 -12.8724 0.0520399 34.736 -0.104141 -4.36885 3.90086 -23.9493 15.4126 -0.0 0.0 -0.0 11.9529 27.3616 -23.1136 -13.8973 23.8207 -60.7752 1.33596 33.4947 -0.402026 17.0248 -0.282525 2.14843 4.56 -29.9483 -39.6114 0.0 0.0 0.0 27.2493 1.29186 -14.2701 -25.0946 0.20049 3.81509 -22.0392 7.61378 3.31537 40.3147 -0.0 -0.0 -0.0 0.0 -0.0 -2.56806 42.0634 -6.70964 -17.1259 -0.318782 -2.59904 23.2498 -4.49114 3.12788 32.4458 -0.0 -0.0 0.0 0.0 0.0 
3398.66 716.069 -1490.5 -3.15565 59.5362 3.73949 2.48185 0.281267 -0.145008 2.48181 0.289924 -0.126816 2.48117 0.307082 -0.0764121 2.48128 0.29116 -0.123951 -10.5282 19.4194 1.09432 -11.1159 35.9786 6.40318 -0.0 0.0 -0.0 -2.42688 5.28935 -3.82024 -29.7879 -25.2324 82.579 0.390896 -10.9592 0.0374988 34.6402 -0.10022 -4.35726 3.90448 -23.1237 15.8914 -0.0 0.0 -0.0 11.8696 26.9759 -22.9705 -12.9578 24.1928 -60.4759 1.43161 35.3413 -0.456098 17.7275 -0.280375 2.23816 4.64864 -29.4579 -40.2571 0.0 0.0 0.0 27.7601 0.541615 -14.6992 -20.7764 0.285602 3.15806 -22.014 7.73061 3.31145 40.1938 -0.0 -0.0 -0.0 0.0 -0.0 -3.98307 42.4716 -5.89058 -16.9983 -0.319297 -2.57946 22.1985 -4.5347 3.00209 32.5115 -0.0 -0.0 0.0 0.0 0.0 
3385.8 714.123 -1489.08 -5.24158 60.3137 6.09826 2.71339 0.0877899 -0.268755 2.71343 0.104714 -0.262625 2.71293 0.146286 -0.241945 2.71287 0.106239 -0.262011 -10.9856 20.096 1.35385 -11.7027 37.1631 7.04432 -0.0 0.0 -0.0 -2.51627 5.81346 -3.89509 -30.0811 -25.1871 83.0638 0.339836 -9.55605 0.0284056 34.7486 -0.104662 -4.37039 3.8012 -21.9823 15.814 -0.0 0.0 -0.0 11.9195 26.9861 -23.0829 -11.9854 24.3769 -59.8308 1.51228 36.8359 -0.503621 18.5775 -0.276303 2.34665 4.73753 -29.1802 -40.9239 0.0 0.0 0.0 27.892 0.307677 -14.3694 -17.034 0.319157 2.58493 -20.5255 8.76841 3.08617 40.0434 -0.0 -0.0 -0.0 0.0 -0.0 -4.55607 42.7053 -5.65672 -15.6813 -0.322067 -2.37742 22.3137 -4.03905 3.01714 32.9862 -0.0 -0.0 0.0 0.0 0.0 
3372.65 712.275 -1486.48 -5.41035 60.3047 6.24136 2.99034 -0.0640903 -0.291133 2.99039 -0.045435 -0.294621 2.99061 0.00195227 -0.298097 2.99049 -0.0451509 -0.294665 -11.3617 20.0106 1.8961 -12.1168 36.7094 7.6683 -0.0 0.0 -0.0 -2.6987 6.3248 -4.13956 -30.0674 -25.1321 83.7255 0.26769 -7.55386 0.0176718 34.9914 -0.114696 -4.39975 3.70898 -21.0011 15.7121 -0.0 0.0 -0.0 11.825 26.7482 -22.8959 -11.1508 24.4462 -59.6243 1.61196 38.6051 -0.564615 19.1134 -0.272909 2.41501 4.7982 -28.9079 -41.3826 0.0 0.0 0.0 27.4619 -0.190033 -14.3673 -15.2644 0.321975 2.31345 -19.6208 9.54444 2.94959 40.1107 -0.0 -0.0 -0.0 0.0 -0.0 -6.66563 42.8144 -4.41392 -15.1861 -0.321906 -2.30145 22.215 -3.71239 3.00617 32.4409 -0.0 -0.0 0.0 0.0 0.0 
3359.85 712.108 -1483.93 -6.48568 60.4856 7.66676 3.2503 -0.094701 -0.373528 3.25038 -0.0707407 -0.378797 3.25082 -0.0114078 -0.385177 3.25062 -0.0720957 -0.378541 -11.5891 20.2354 2.25054 -12.3918 36.9472 8.1649 -0.0 0.0 -0.0 -2.76695 6.81668 -4.17634 -30.1541 -25.0333 84.0866 0.233558 -6.5998 0.0134664 34.9919 -0.114717 -4.39981 3.61319 -19.7575 15.7121 -0.0 0.0 -0.0 11.7141 26.7714 -22.6411 -10.673 24.5649 -59.4167 1.69356 39.9912 -0.616296 19.5929 -0.26933 2.47615 4.84459 -28.7015 -41.7371 0.0 0.0 0.0 27.6769 -0.646446 -14.7611 -13.3594 0.315638 2.02125 -18.7496 10.1552 2.8182 39.8687 -0.0 -0.0 -0.0 0.0 -0.0 -6.94972 43.0162 -4.4103 -14.2941 -0.319962 -2.1646 22.8741 -3.5019 3.08582 32.4891 -0.0 -0.0 0.0 0.0 0.0 
